<svg width="352" height="34" viewBox="0 0 352 34" fill="none" xmlns="http://www.w3.org/2000/svg">
<g clip-path="url(#clip0_2887_7920)">
<path d="M296.921 28.1975V3.58566H307.996C312.708 3.58566 316.118 6.57424 316.118 11.4263C316.118 16.208 312.708 19.2318 307.996 19.2318H301.175V28.1975H296.921ZM301.175 15.7158H307.258C310.035 15.7158 311.723 14.0281 311.723 11.4263C311.723 8.75415 310.035 7.10164 307.258 7.10164H301.175V15.7158Z" fill="#0666FF"/>
<path d="M322.558 28.6546C319.077 28.6546 316.827 26.6153 316.827 23.5213C316.827 19.3724 320.413 18.3879 323.402 17.8957L326.812 17.4035C328.113 17.1925 328.43 16.5245 328.43 15.7158C328.43 14.2742 327.445 13.114 325.265 13.114C323.156 13.114 321.785 14.0984 321.539 16.0322H317.46C317.952 12.0943 321.081 10.0199 325.301 10.0199C330.082 10.0199 332.473 12.3053 332.473 16.5948V24.1893C332.473 24.6815 332.825 24.998 333.317 24.998H334.266V28.1975H331.665C329.871 28.1975 328.746 27.3185 328.746 25.9473V25.5605C327.199 27.8107 324.879 28.6546 322.558 28.6546ZM320.976 23.0993C320.976 24.6815 322.136 25.5605 323.894 25.5605C326.707 25.5605 328.43 23.24 328.43 20.3217V19.3724C327.902 19.6537 327.41 19.7592 326.812 19.8998L324.175 20.3569C321.96 20.7436 320.976 21.5875 320.976 23.0993Z" fill="#0666FF"/>
<path d="M335.404 34.034V30.9048H338.709C339.729 30.9048 340.256 30.6938 340.643 29.7445L341.346 27.8459L334.103 10.477H338.393L343.28 22.8884L347.745 10.477H352L344.124 31.0454C343.14 33.6121 341.557 34.034 339.483 34.034H335.404Z" fill="#0666FF"/>
<g clip-path="url(#clip1_2887_7920)">
<path d="M86.5163 2.70319L81.7637 22.8942L76.6041 2.70319H72.1416L67.0584 22.8588L62.2651 2.70319H57.6602L64.331 28.3081H69.2667L74.3907 8.51605L79.4791 28.3081H84.4148L91.0856 2.70319H86.5163Z" fill="#0666FF"/>
<path d="M106.739 24.1365V16.2329C106.739 11.7684 104.231 9.39481 99.2186 9.39481C94.7968 9.39481 91.5148 11.5513 91.0008 15.6521H95.2751C95.5346 13.6421 96.9695 12.6169 99.1829 12.6169C101.396 12.6169 102.501 13.8239 102.501 15.3238C102.501 16.1672 102.17 16.8591 100.806 17.0813L97.229 17.5914C94.0946 18.1015 90.3394 19.1267 90.3394 23.4447C90.3394 26.6617 92.7004 28.7878 96.3487 28.7878C98.7809 28.7878 101.213 27.9091 102.836 25.5708V25.9748C102.836 27.4041 104.017 28.3182 105.894 28.3182H108.622V24.99H107.625C107.111 24.99 106.739 24.6618 106.739 24.1466V24.1365ZM102.501 20.1165C102.501 23.1517 100.694 25.5658 97.748 25.5658C95.906 25.5658 94.6899 24.6517 94.6899 23.0053C94.6899 21.3589 95.7228 20.5559 98.0431 20.1519L100.806 19.6772C101.432 19.5307 101.951 19.4196 102.501 19.1267V20.1165Z" fill="#0666FF"/>
<path d="M114.657 2.70319H110.382V28.3081H114.657V2.70319Z" fill="#0666FF"/>
<path d="M121.941 2.70319H117.667V28.3081H121.941V2.70319Z" fill="#0666FF"/>
<path d="M133.014 9.39479C127.483 9.39479 123.982 13.5663 123.982 19.0913C123.982 24.6163 127.483 28.7828 133.014 28.7828C137.878 28.7828 140.753 26.0405 141.343 22.5255H137.14C136.55 24.4294 135.151 25.4496 133.049 25.4496C129.956 25.4496 128.516 23.182 128.256 20.1468H141.562C141.857 12.1724 137.878 9.38974 133.014 9.38974V9.39479ZM128.332 17.2985C128.74 14.7026 130.174 12.6876 133.014 12.6876C135.594 12.6876 137.14 14.0764 137.364 17.2985H128.332Z" fill="#0666FF"/>
<path d="M149.099 22.8234V13.1319H153.078V9.8745H149.099V3.76367H144.825V8.9604C144.825 9.54623 144.494 9.8745 143.94 9.8745H141.915V13.1319H144.825V23.7425C144.825 26.9242 146.408 28.313 149.506 28.313H153.526V24.9849H151.023C149.583 24.9849 149.104 24.3637 149.104 22.8284L149.099 22.8234Z" fill="#0666FF"/>
<path d="M167.121 24.9798C162.664 24.9798 159.825 21.0659 159.825 15.5055C159.825 9.94518 162.588 6.03122 167.121 6.03122C170.622 6.03122 172.795 8.33414 173.426 11.7027H178.072C177.481 6.25343 173.65 2.22836 167.126 2.22836C160.237 2.22836 155.148 7.42509 155.148 15.5055C155.148 23.586 160.16 28.7827 167.126 28.7827C172.948 28.7827 177.298 25.6364 178.295 19.1973H173.65C173.095 22.6719 170.627 24.9748 167.126 24.9748L167.121 24.9798Z" fill="#0666FF"/>
<path d="M188.723 9.39481C182.938 9.39481 179.584 13.5663 179.584 19.0913C179.584 24.6163 182.938 28.7828 188.723 28.7828C194.509 28.7828 197.826 24.6517 197.826 19.0913C197.826 13.531 194.509 9.39481 188.723 9.39481ZM188.723 25.3436C185.294 25.3436 183.971 22.379 183.971 19.0509C183.971 15.7228 185.299 12.834 188.723 12.834C192.148 12.834 193.476 15.7581 193.476 19.0509C193.476 22.3437 192.148 25.3436 188.723 25.3436Z" fill="#0666FF"/>
<path d="M210.246 9.39481C207.742 9.39481 205.346 10.5665 204.089 12.6522V9.87458H199.814V28.3131H204.089V17.9247C204.089 15.0713 206.078 12.9502 208.694 12.9502C211.055 12.9502 212.602 14.4855 212.602 17.2682V28.3182H216.876V16.7581C216.876 12.0765 214.408 9.40491 210.241 9.40491L210.246 9.39481Z" fill="#0666FF"/>
<path d="M230.168 9.39481C227.664 9.39481 225.268 10.5665 224.011 12.6522V9.87458H219.737V28.3131H224.011V17.9247C224.011 15.0713 226.001 12.9502 228.616 12.9502C230.977 12.9502 232.524 14.4855 232.524 17.2682V28.3182H236.798V16.7581C236.798 12.0765 234.33 9.40491 230.163 9.40491L230.168 9.39481Z" fill="#0666FF"/>
<path d="M247.691 9.39479C242.16 9.39479 238.659 13.5663 238.659 19.0913C238.659 24.6163 242.16 28.7828 247.691 28.7828C252.556 28.7828 255.43 26.0405 256.021 22.5255H251.818C251.227 24.4294 249.828 25.4496 247.727 25.4496C244.633 25.4496 243.193 23.182 242.933 20.1468H256.239C256.535 12.1724 252.556 9.38974 247.691 9.38974V9.39479ZM243.01 17.2985C243.417 14.7026 244.852 12.6876 247.691 12.6876C250.271 12.6876 251.818 14.0764 252.042 17.2985H243.01Z" fill="#0666FF"/>
<path d="M266.446 12.834C268.512 12.834 270.023 14.1522 270.466 16.4551H274.776C274.221 11.9906 271.092 9.39481 266.481 9.39481C260.879 9.39481 257.343 13.5663 257.343 19.0913C257.343 24.6163 260.879 28.7828 266.481 28.7828C271.31 28.7828 274.185 26.0758 274.776 22.1265H270.501C269.911 24.283 268.547 25.3436 266.446 25.3436C263.24 25.3436 261.729 22.4548 261.729 19.0509C261.729 15.647 263.24 12.834 266.446 12.834Z" fill="#0666FF"/>
<path d="M284.388 24.9799C282.948 24.9799 282.47 24.3587 282.47 22.8234V13.1319H286.449V9.8745H282.47V3.76367H278.196V8.9604C278.196 9.54623 277.865 9.8745 277.31 9.8745H275.285V13.1319H278.196V23.7425C278.196 26.9242 279.778 28.313 282.877 28.313H286.892V24.9849H284.388V24.9799Z" fill="#0666FF"/>
<path d="M38.3554 11.3442L42.7365 6.99593C32.8345 -2.8319 20.5309 -2.8319 10.6289 6.99593L15.01 11.3442C22.5408 3.86981 30.8297 3.86981 38.3605 11.3442H38.3554Z" fill="#0666FF"/>
<path d="M36.8955 21.475L26.6781 11.334L16.4606 21.475L6.24318 11.334L1.86719 15.6772L16.4606 30.1665L26.6781 20.0255L36.8955 30.1665L51.4889 15.6772L47.1129 11.334L36.8955 21.475Z" fill="#0666FF"/>
</g>
</g>
<defs>
<clipPath id="clip0_2887_7920">
<rect width="352" height="33.6127" fill="white"/>
</clipPath>
<clipPath id="clip1_2887_7920">
<rect width="285.966" height="30.8066" fill="white" transform="translate(1.86719 -0.374939)"/>
</clipPath>
</defs>
</svg>
